<svg xmlns="http://www.w3.org/2000/svg" xmlns:xlink="http://www.w3.org/1999/xlink" width="171px" height="32px" viewBox="0 0 171 32"><title>751B3956-8F2A-4CBD-8B1F-C74C3A0B30B5@1.5x</title><desc>Created with sketchtool.</desc><g id="473-&amp;-480-Desktop" stroke="none" stroke-width="1" fill="none" fill-rule="evenodd"><g id="Header-Scroll" transform="translate(-24.000000, -32.000000)"><g id="Navigation/Header/Dropdown"><g id="Logo/White" transform="translate(24.000000, 32.000000)"><g id="Logo"><path d="M94.607,1.0346 L87.811,10.7646 L80.928,1.0346 L80.85,1.0346 L73.941,14.1216 L73.941,31.0606 L80.49,31.0606 L80.49,12.4676 L87.567,21.6826 L87.604,21.7436 L87.887,21.7436 L95.046,12.3836 L95.046,31.0606 L101.639,31.0606 L101.639,1.0346 L94.607,1.0346 Z M36.952,25.2416 L36.952,18.8506 L49,18.8506 L49,13.0326 L36.952,13.0326 L36.952,6.8536 L50.65,6.8536 L50.65,1.0346 L30.27,1.0346 L30.27,31.0606 L42.913,31.0606 L45.984,25.2416 L36.952,25.2416 Z M155.353,15.7076 L164.352,1.0346 L156.867,1.0346 L151.546,10.5516 L146.313,1.0346 L138.651,1.0346 L147.559,15.7916 L138.248,31.0606 L145.732,31.0606 L151.411,20.9876 L157.045,31.0606 L164.708,31.0596 L155.353,15.7076 Z M124.37,18.9026 L117.901,18.9026 L121.157,9.7116 L124.37,18.9026 Z M118.078,0.8636 L106.786,31.0606 L113.576,31.0606 L115.851,24.5936 L126.42,24.5936 L128.74,31.0606 L135.708,31.0606 L124.416,0.8636 L118.078,0.8636 Z M16.331,11.1976 L16.331,11.2396 C16.331,13.9606 14.477,15.5846 11.373,15.5846 L6.727,15.5846 L6.727,6.8536 L11.239,6.8536 C14.57,6.8536 16.331,8.3556 16.331,11.1976 L16.331,11.1976 Z M23.102,11.0706 L23.102,10.8996 C23.102,7.9996 22.179,5.5866 20.432,3.9206 C18.452,2.0326 15.489,1.0346 11.863,1.0346 L2.84217094e-13,1.0346 L2.84217094e-13,31.0606 L6.727,31.0606 L6.727,21.2756 L10.583,21.2756 L16.34,31.0606 L24.044,31.0606 L17.356,19.9326 C20.009,18.7796 23.102,16.3106 23.102,11.0706 L23.102,11.0706 Z" id="Fill-10643" fill="#CB2432"></path><polygon id="Fill-10645" fill="#0F4584" points="65.6608 1.0346 49.8118 31.0606 57.9818 31.0606 73.8348 1.0346"></polygon><path d="M167.5181,2.13 L167.8091,2.13 C168.1401,2.13 168.4211,2.012 168.4211,1.709 C168.4211,1.492 168.2611,1.277 167.8091,1.277 C167.6791,1.277 167.5891,1.287 167.5181,1.296 L167.5181,2.13 Z M167.5181,3.495 L167.1181,3.495 L167.1181,1.031 C167.3271,1.001 167.5281,0.972 167.8291,0.972 C168.2101,0.972 168.4611,1.051 168.6121,1.158 C168.7621,1.267 168.8431,1.432 168.8431,1.667 C168.8431,1.992 168.6231,2.19 168.3501,2.268 L168.3501,2.288 C168.5721,2.327 168.7211,2.522 168.7711,2.886 C168.8321,3.269 168.8921,3.417 168.9321,3.495 L168.5111,3.495 C168.4511,3.417 168.3911,3.19 168.3411,2.866 C168.2801,2.552 168.1211,2.434 167.7991,2.434 L167.5181,2.434 L167.5181,3.495 Z M167.9401,0.345 C166.9461,0.345 166.1351,1.181 166.1351,2.21 C166.1351,3.259 166.9461,4.085 167.9491,4.085 C168.9531,4.093 169.7541,3.259 169.7541,2.218 C169.7541,1.181 168.9531,0.345 167.9491,0.345 L167.9401,0.345 Z M167.9491,1.70530257e-13 C169.1851,1.70530257e-13 170.1661,0.983 170.1661,2.21 C170.1661,3.455 169.1851,4.428 167.9401,4.428 C166.7061,4.428 165.7041,3.455 165.7041,2.21 C165.7041,0.983 166.7061,1.70530257e-13 167.9401,1.70530257e-13 L167.9491,1.70530257e-13 Z" id="Fill-10647" fill="#CB2432"></path></g></g></g></g></g></svg>